<?xml version="1.0" encoding="UTF-8" standalone="no"?>
<svg
   xmlns:dc="http://purl.org/dc/elements/1.1/"
   xmlns:cc="http://creativecommons.org/ns#"
   xmlns:rdf="http://www.w3.org/1999/02/22-rdf-syntax-ns#"
   xmlns:svg="http://www.w3.org/2000/svg"
   xmlns="http://www.w3.org/2000/svg"
   height="32"
   width="32"
   x="0"
   y="0"
   version="1.0"
   viewBox="0 0 32 32"
   id="svg1468">
  <defs
     id="defs14" />
  <g
     transform="matrix(0.36594693,0,0,0.36594693,-10.310838,-9.3561914)"
     id="layer1">
    <path
       style="color:#000000;font-style:normal;font-variant:normal;font-weight:normal;font-stretch:normal;font-size:medium;line-height:normal;font-family:sans-serif;font-variant-ligatures:normal;font-variant-position:normal;font-variant-caps:normal;font-variant-numeric:normal;font-variant-alternates:normal;font-feature-settings:normal;text-indent:0;text-align:start;text-decoration:none;text-decoration-line:none;text-decoration-style:solid;text-decoration-color:#000000;letter-spacing:normal;word-spacing:normal;text-transform:none;writing-mode:lr-tb;direction:ltr;text-orientation:mixed;dominant-baseline:auto;baseline-shift:baseline;text-anchor:start;white-space:normal;shape-padding:0;clip-rule:nonzero;display:inline;overflow:visible;visibility:visible;opacity:1;isolation:auto;mix-blend-mode:normal;color-interpolation:sRGB;color-interpolation-filters:linearRGB;solid-color:#000000;solid-opacity:1;vector-effect:none;fill:#ffffff;fill-opacity:1;fill-rule:nonzero;stroke:none;stroke-width:3.8521;stroke-linecap:round;stroke-linejoin:round;stroke-miterlimit:4;stroke-dasharray:none;stroke-dashoffset:0;stroke-opacity:1;color-rendering:auto;image-rendering:auto;shape-rendering:auto;text-rendering:auto;enable-background:accumulate"
       d="m 80.095877,80.219792 21.861093,1.3e-5 c 5.39337,3e-6 5.46524,-0.195189 5.46524,-5.465273 l 3e-5,-38.256914 c 0,-5.270082 -0.0719,-5.465273 -5.46527,-5.465273 H 41.838964 c -5.39336,0 -5.465282,0.195191 -5.465282,5.465273 v 38.256914 c 0,5.270084 0.07192,5.465273 5.465282,5.465273 h 21.861093 c 2.732637,0 2.732637,0 2.732637,-2.732637 0,-2.732636 0,-2.732636 -2.732637,-2.732631 H 44.571601 c -1.79779,0 -2.732637,-0.975949 -2.732637,-2.732642 v -32.79164 c 0,-1.756696 0.934847,-2.732637 2.732637,-2.732637 h 54.652733 c 1.797796,0 2.732616,0.975941 2.732636,2.732637 l 4.4e-4,32.79164 c 2e-5,1.756693 -0.93528,2.732643 -2.733076,2.732642 l -19.128457,-1.1e-5 c -2.732637,6e-6 -2.732637,6e-6 -2.732637,2.732642 0,2.732637 0,2.732637 2.732637,2.732624 z"
       id="rect2700" />
    <path
       style="fill:#ffffff;fill-rule:nonzero;stroke:#ff3838;stroke-width:0;stroke-linecap:round;stroke-linejoin:round;stroke-miterlimit:4;stroke-dasharray:none;stroke-opacity:1;paint-order:normal"
       id="path2"
       d="m 90.054737,88.289627 -1.80339,-1.803389 c -1.803386,-1.803384 -1.803386,-1.803384 -3.606777,0 l -8.209031,8.014255 -3.17126,-37.5081 c 0,-1.366318 -7.24e-4,-1.366318 -1.366318,-1.366318 v 0 c -1.36574,0 -1.355645,0 -1.366319,1.366318 l -3.113045,37.5081 -8.352639,-7.982096 c -1.803391,-1.803391 -1.803391,-1.803391 -3.606782,0 l -1.803384,1.80339 c -1.803391,1.80339 -1.803391,1.80339 0,3.606776 5.70658,5.76668 10.771535,11.232207 16.467889,16.999097 1.803389,1.80339 1.803389,1.80339 3.606777,0 5.7486,-5.8656 10.572656,-11.172787 16.324279,-17.031257 1.80339,-1.803386 1.80339,-1.803386 0,-3.606776 z" />
  </g>
  <metadata
     id="metadata11">
    <rdf:RDF>
      <cc:Work>
        <dc:format>image/svg+xml</dc:format>
        <dc:type
           rdf:resource="http://purl.org/dc/dcmitype/StillImage" />
        <cc:license
           rdf:resource="http://creativecommons.org/publicdomain/zero/1.0/" />
        <dc:title></dc:title>
      </cc:Work>
      <cc:License
         rdf:about="http://creativecommons.org/publicdomain/zero/1.0/">
        <cc:permits
           rdf:resource="http://creativecommons.org/ns#Reproduction" />
        <cc:permits
           rdf:resource="http://creativecommons.org/ns#Distribution" />
        <cc:permits
           rdf:resource="http://creativecommons.org/ns#DerivativeWorks" />
      </cc:License>
    </rdf:RDF>
  </metadata>
</svg>
