<?xml version="1.0" encoding="UTF-8" standalone="no"?>
<svg
   xmlns:dc="http://purl.org/dc/elements/1.1/"
   xmlns:cc="http://creativecommons.org/ns#"
   xmlns:rdf="http://www.w3.org/1999/02/22-rdf-syntax-ns#"
   xmlns:svg="http://www.w3.org/2000/svg"
   xmlns="http://www.w3.org/2000/svg"
   height="48"
   width="48"
   version="1.1"
   viewBox="0 0 47.999999 48.000002"
   id="svg12067">
  <defs
     id="defs9" />
  <g
     style="fill:#ffffff;fill-opacity:1"
     transform="matrix(0.04499055,0,0,0.05747354,7.1283179,-6.5968724)"
     id="layer1">
    <path
       style="fill:#ffffff;fill-opacity:1"
       d="m -36.19244,140.88 c -44.45378,0 -88.90756,34.79863 -88.90756,69.59725 v 521.97933 c 0,34.79862 44.45378,69.59724 88.90756,69.59724 h 200.04201 v 69.59725 H 52.715119 c -22.22689,0 -22.22689,0 -22.22689,17.39931 v 17.39931 c 0,17.39931 0,17.39931 22.22689,17.39931 H 697.29493 c 22.22689,0 22.22689,0 22.22689,-17.39931 v -17.39931 c 0,-17.39931 0,-17.39931 -22.22689,-17.39931 H 586.16048 v -69.59725 h 200.042 c 44.45378,0 88.90756,-34.79862 88.90756,-69.59724 V 210.47725 c 0,-34.79862 -44.45378,-69.59725 -88.90756,-69.59725 z m 0,69.59725 H 786.20248 V 715.05727 H -36.19244 Z"
       id="rect5467" />
  </g>
  <metadata
     id="metadata4">
    <rdf:RDF>
      <cc:Work>
        <dc:format>image/svg+xml</dc:format>
        <dc:type
           rdf:resource="http://purl.org/dc/dcmitype/StillImage" />
        <cc:license
           rdf:resource="http://creativecommons.org/publicdomain/zero/1.0/" />
        <dc:title></dc:title>
      </cc:Work>
      <cc:License
         rdf:about="http://creativecommons.org/publicdomain/zero/1.0/">
        <cc:permits
           rdf:resource="http://creativecommons.org/ns#Reproduction" />
        <cc:permits
           rdf:resource="http://creativecommons.org/ns#Distribution" />
        <cc:permits
           rdf:resource="http://creativecommons.org/ns#DerivativeWorks" />
      </cc:License>
    </rdf:RDF>
  </metadata>
  <path
     d="m 28.804217,22.902437 q 0,1.218747 -0.410158,2.167937 -0.410154,0.949229 -1.160156,1.605506 -0.749998,0.644523 -1.792966,0.98434 Q 24.409685,28 23.144061,28 q -0.703124,0 -1.335938,-0.105449 -0.63281,-0.09373 -1.124999,-0.234331 -0.492189,-0.152315 -0.808596,-0.292913 -0.316422,-0.140599 -0.410154,-0.222614 -0.08202,-0.08202 -0.117204,-0.152315 -0.03515,-0.0703 -0.0703,-0.164032 Q 19.25344,26.722897 19.24172,26.570582 19.23,26.418267 19.23,26.20737 q 0,-0.199181 0.01172,-0.351496 0.02343,-0.164032 0.0703,-0.257764 0.04687,-0.105449 0.105486,-0.152315 0.0703,-0.04687 0.152353,-0.04687 0.117203,0 0.363288,0.152315 0.246085,0.140598 0.656251,0.316346 0.421875,0.164032 1.031252,0.316347 0.621093,0.152315 1.464843,0.152315 0.785155,0 1.441406,-0.187465 0.65625,-0.187465 1.124999,-0.58594 0.480468,-0.398438 0.750002,-0.996095 0.269518,-0.609373 0.269518,-1.476548 0,-0.726576 -0.234369,-1.277367 -0.222652,-0.562503 -0.703128,-0.925753 -0.468748,-0.374929 -1.19531,-0.550791 -0.726565,-0.187464 -1.734376,-0.187464 -0.714844,0 -1.23047,0.0703 -0.515622,0.0703 -0.960938,0.0703 -0.328138,0 -0.468748,-0.152315 -0.140636,-0.152315 -0.140636,-0.58594 v -6.175786 q 0,-0.386721 0.175786,-0.574223 0.187502,-0.187465 0.527342,-0.187465 h 6.714845 q 0.09373,0 0.175786,0.05858 0.09373,0.04687 0.152352,0.152315 0.05858,0.105448 0.08202,0.26948 0.03515,0.164031 0.03515,0.386721 0,0.421871 -0.117203,0.65624 -0.117204,0.23433 -0.328139,0.23433 h -5.66013 v 4.253896 q 0.410155,-0.05858 0.832029,-0.0703 0.433595,-0.01134 0.996095,-0.01134 1.300781,0 2.273438,0.316347 0.972654,0.30463 1.617188,0.878929 0.656251,0.562507 0.984375,1.371099 0.339855,0.808592 0.339855,1.792971 z"
     style="font-style:normal;font-variant:normal;font-weight:normal;font-stretch:normal;font-size:6.3499999px;line-height:125%;font-family:Calibri;-inkscape-font-specification:Calibri;letter-spacing:0px;word-spacing:0px;fill:#ffffff;fill-opacity:1;stroke:none;stroke-width:0.99999994px;stroke-linecap:butt;stroke-linejoin:miter;stroke-opacity:1"
     id="path5250" />
</svg>
