<?xml version="1.0" encoding="UTF-8" standalone="no"?>
<svg
   xmlns:dc="http://purl.org/dc/elements/1.1/"
   xmlns:cc="http://creativecommons.org/ns#"
   xmlns:rdf="http://www.w3.org/1999/02/22-rdf-syntax-ns#"
   xmlns:svg="http://www.w3.org/2000/svg"
   xmlns="http://www.w3.org/2000/svg"
   height="48"
   width="48"
   version="1.1"
   viewBox="0 0 47.999999 48.000002"
   id="svg12067">
  <defs
     id="defs9" />
  <g
     style="fill:#ffffff;fill-opacity:1"
     transform="matrix(0.04499055,0,0,0.05747354,7.1283179,-6.5968724)"
     id="layer1">
    <path
       style="fill:#ffffff;fill-opacity:1"
       d="m -36.19244,140.88 c -44.45378,0 -88.90756,34.79863 -88.90756,69.59725 v 521.97933 c 0,34.79862 44.45378,69.59724 88.90756,69.59724 h 200.04201 v 69.59725 H 52.715119 c -22.22689,0 -22.22689,0 -22.22689,17.39931 v 17.39931 c 0,17.39931 0,17.39931 22.22689,17.39931 H 697.29493 c 22.22689,0 22.22689,0 22.22689,-17.39931 v -17.39931 c 0,-17.39931 0,-17.39931 -22.22689,-17.39931 H 586.16048 v -69.59725 h 200.042 c 44.45378,0 88.90756,-34.79862 88.90756,-69.59724 V 210.47725 c 0,-34.79862 -44.45378,-69.59725 -88.90756,-69.59725 z m 0,69.59725 H 786.20248 V 715.05727 H -36.19244 Z"
       id="rect5467" />
  </g>
  <metadata
     id="metadata4">
    <rdf:RDF>
      <cc:Work>
        <dc:format>image/svg+xml</dc:format>
        <dc:type
           rdf:resource="http://purl.org/dc/dcmitype/StillImage" />
        <cc:license
           rdf:resource="http://creativecommons.org/publicdomain/zero/1.0/" />
        <dc:title></dc:title>
      </cc:Work>
      <cc:License
         rdf:about="http://creativecommons.org/publicdomain/zero/1.0/">
        <cc:permits
           rdf:resource="http://creativecommons.org/ns#Reproduction" />
        <cc:permits
           rdf:resource="http://creativecommons.org/ns#Distribution" />
        <cc:permits
           rdf:resource="http://creativecommons.org/ns#DerivativeWorks" />
      </cc:License>
    </rdf:RDF>
  </metadata>
  <path
     d="m 28.751952,23.441436 q 0,1.042999 -0.363289,1.88674 -0.363288,0.832026 -1.042968,1.429682 -0.679687,0.597657 -1.675782,0.925795 Q 24.673819,28 23.419911,28 q -0.761718,0 -1.429685,-0.128882 -0.656251,-0.117165 -1.171877,-0.281197 -0.515626,-0.175748 -0.85547,-0.351496 -0.339855,-0.187464 -0.433591,-0.26948 -0.08202,-0.08202 -0.12892,-0.164032 -0.04687,-0.08201 -0.08202,-0.199181 -0.03515,-0.117165 -0.05858,-0.281197 -0.01172,-0.175748 -0.01172,-0.42187 0,-0.421871 0.08202,-0.585941 0.08202,-0.164031 0.234369,-0.164031 0.105486,0 0.410158,0.187464 0.316422,0.187465 0.796876,0.410155 0.492185,0.210897 1.136719,0.398438 0.656247,0.187464 1.453122,0.187464 0.773439,0 1.359376,-0.199181 0.58594,-0.199181 0.984374,-0.562507 0.398438,-0.363213 0.597656,-0.855458 0.199219,-0.503925 0.199219,-1.089865 0,-0.644523 -0.257801,-1.160164 -0.246085,-0.515603 -0.738278,-0.890608 -0.480469,-0.374929 -1.195313,-0.574223 -0.703125,-0.199181 -1.605468,-0.199181 h -1.44141 q -0.09373,0 -0.187502,-0.03402 -0.08202,-0.04687 -0.152353,-0.140599 -0.05858,-0.09373 -0.105449,-0.246047 -0.03515,-0.152315 -0.03515,-0.398438 0,-0.222614 0.03515,-0.363212 0.03515,-0.152315 0.09373,-0.234331 0.0703,-0.09373 0.152352,-0.128882 0.08202,-0.04687 0.187503,-0.04687 h 1.324218 q 0.773438,0 1.382812,-0.199181 0.621093,-0.199181 1.042968,-0.574224 0.433595,-0.374929 0.65625,-0.890608 0.234369,-0.527357 0.234369,-1.17188 0,-0.468737 -0.152353,-0.890608 -0.152353,-0.433625 -0.457032,-0.750009 -0.304705,-0.316347 -0.785155,-0.492208 -0.468748,-0.187465 -1.089842,-0.187465 -0.679687,0 -1.253907,0.210898 -0.5625,0.199181 -1.007811,0.433625 -0.445316,0.234331 -0.738282,0.445304 -0.292951,0.199181 -0.410158,0.199181 -0.08202,0 -0.152353,-0.02268 -0.05858,-0.03402 -0.105486,-0.117165 -0.03515,-0.09373 -0.05858,-0.246048 -0.01172,-0.164031 -0.01172,-0.42187 0,-0.175748 0.01172,-0.30463 0.01172,-0.140599 0.04687,-0.234331 0.03515,-0.105449 0.08202,-0.187465 0.04687,-0.08201 0.152353,-0.187464 0.117203,-0.117166 0.457031,-0.328063 0.339856,-0.210898 0.832033,-0.410155 0.503906,-0.210897 1.148436,-0.351496 0.656251,-0.140598 1.406253,-0.140598 1.054684,0 1.85156,0.26948 0.796876,0.269481 1.324218,0.761726 0.539063,0.492208 0.796876,1.183597 0.269518,0.67971 0.269518,1.511736 0,0.714822 -0.187503,1.335911 -0.187502,0.609374 -0.550779,1.089865 -0.363288,0.468737 -0.890627,0.808592 -0.527342,0.328063 -1.21875,0.457021 v 0.02268 q 0.785159,0.08202 1.42969,0.398437 0.65625,0.30463 1.124999,0.773443 0.468748,0.468775 0.726561,1.101581 0.269518,0.62109 0.269518,1.335912 z"
     style="font-style:normal;font-variant:normal;font-weight:normal;font-stretch:normal;font-size:6.3499999px;line-height:125%;font-family:Calibri;-inkscape-font-specification:Calibri;letter-spacing:0px;word-spacing:0px;fill:#ffffff;fill-opacity:1;stroke:none;stroke-width:0.99999994px;stroke-linecap:butt;stroke-linejoin:miter;stroke-opacity:1"
     id="path5246" />
</svg>
