<?xml version="1.0" encoding="UTF-8" standalone="no"?>
<svg
   xmlns:dc="http://purl.org/dc/elements/1.1/"
   xmlns:cc="http://creativecommons.org/ns#"
   xmlns:rdf="http://www.w3.org/1999/02/22-rdf-syntax-ns#"
   xmlns:svg="http://www.w3.org/2000/svg"
   xmlns="http://www.w3.org/2000/svg"
   height="48"
   width="48"
   version="1.1"
   viewBox="0 0 47.999999 48.000002"
   id="svg12067">
  <defs
     id="defs9" />
  <g
     style="fill:#ffffff;fill-opacity:1"
     transform="matrix(0.04499055,0,0,0.05747354,7.1283179,-6.5968724)"
     id="layer1">
    <path
       style="fill:#ffffff;fill-opacity:1"
       d="m -36.19244,140.88 c -44.45378,0 -88.90756,34.79863 -88.90756,69.59725 v 521.97933 c 0,34.79862 44.45378,69.59724 88.90756,69.59724 h 200.04201 v 69.59725 H 52.715119 c -22.22689,0 -22.22689,0 -22.22689,17.39931 v 17.39931 c 0,17.39931 0,17.39931 22.22689,17.39931 H 697.29493 c 22.22689,0 22.22689,0 22.22689,-17.39931 v -17.39931 c 0,-17.39931 0,-17.39931 -22.22689,-17.39931 H 586.16048 v -69.59725 h 200.042 c 44.45378,0 88.90756,-34.79862 88.90756,-69.59724 V 210.47725 c 0,-34.79862 -44.45378,-69.59725 -88.90756,-69.59725 z m 0,69.59725 H 786.20248 V 715.05727 H -36.19244 Z"
       id="rect5467" />
  </g>
  <metadata
     id="metadata4">
    <rdf:RDF>
      <cc:Work>
        <dc:format>image/svg+xml</dc:format>
        <dc:type
           rdf:resource="http://purl.org/dc/dcmitype/StillImage" />
        <cc:license
           rdf:resource="http://creativecommons.org/publicdomain/zero/1.0/" />
        <dc:title></dc:title>
      </cc:Work>
      <cc:License
         rdf:about="http://creativecommons.org/publicdomain/zero/1.0/">
        <cc:permits
           rdf:resource="http://creativecommons.org/ns#Reproduction" />
        <cc:permits
           rdf:resource="http://creativecommons.org/ns#Distribution" />
        <cc:permits
           rdf:resource="http://creativecommons.org/ns#DerivativeWorks" />
      </cc:License>
    </rdf:RDF>
  </metadata>
  <path
     d="m 28.746,27.132972 q 0,0.210898 -0.03515,0.37493 -0.02343,0.164031 -0.08205,0.281196 -0.04687,0.105449 -0.140633,0.164032 Q 28.406153,28 28.300673,28 h -8.378696 q -0.164066,0 -0.292981,-0.03402 -0.117163,-0.04687 -0.210931,-0.140598 -0.08201,-0.09373 -0.128916,-0.26948 -0.03515,-0.175748 -0.03515,-0.433588 0,-0.234331 0.01172,-0.410154 0.02343,-0.175748 0.08202,-0.30463 0.05858,-0.140599 0.140632,-0.26948 0.09377,-0.140599 0.234363,-0.292914 l 2.941332,-3.117165 q 1.019506,-1.078147 1.628868,-1.933605 0.621078,-0.855458 0.949193,-1.558602 0.339846,-0.703105 0.445301,-1.277329 0.105483,-0.574223 0.105483,-1.078148 0,-0.503886 -0.164065,-0.94919 -0.164065,-0.45706 -0.480456,-0.796876 -0.304698,-0.33978 -0.773415,-0.539074 -0.468742,-0.199181 -1.078099,-0.199181 -0.714827,0 -1.289032,0.199181 -0.562486,0.199181 -0.996066,0.433586 -0.421864,0.234332 -0.714827,0.433588 -0.281227,0.199182 -0.421864,0.199182 -0.08202,0 -0.152349,-0.04687 -0.05858,-0.04687 -0.105446,-0.152315 -0.03515,-0.105449 -0.05858,-0.281197 -0.02343,-0.175749 -0.02343,-0.421871 0,-0.175748 0.01172,-0.30463 0.01172,-0.128882 0.03515,-0.222614 0.03515,-0.09373 0.08202,-0.175748 0.04687,-0.08202 0.187497,-0.199181 0.140633,-0.128882 0.480457,-0.33978 0.351563,-0.210897 0.867164,-0.410154 0.52733,-0.210898 1.148407,-0.351496 0.632799,-0.140599 1.324189,-0.140599 1.101535,0 1.921827,0.316347 0.832008,0.30463 1.371057,0.843742 0.550769,0.539074 0.820292,1.253896 0.269511,0.71486 0.269511,1.523452 0,0.726538 -0.128916,1.453115 -0.128916,0.71486 -0.550766,1.558601 -0.410147,0.832025 -1.195283,1.86327 -0.785136,1.019527 -2.085884,2.355476 l -2.402283,2.507792 h 6.597487 q 0.09377,0 0.175782,0.05858 0.09377,0.04687 0.152348,0.152315 0.0703,0.105449 0.09377,0.26948 0.03515,0.152315 0.03515,0.363213 z"
     style="font-style:normal;font-variant:normal;font-weight:normal;font-stretch:normal;font-size:6.3499999px;line-height:125%;font-family:Calibri;-inkscape-font-specification:Calibri;letter-spacing:0px;word-spacing:0px;fill:#ffffff;fill-opacity:1;stroke:none;stroke-width:0.99998742px;stroke-linecap:butt;stroke-linejoin:miter;stroke-opacity:1"
     id="path5244" />
</svg>
