<?xml version="1.0" encoding="UTF-8" standalone="no"?>
<svg
   xmlns:dc="http://purl.org/dc/elements/1.1/"
   xmlns:cc="http://creativecommons.org/ns#"
   xmlns:rdf="http://www.w3.org/1999/02/22-rdf-syntax-ns#"
   xmlns:svg="http://www.w3.org/2000/svg"
   xmlns="http://www.w3.org/2000/svg"
   height="48"
   width="48"
   version="1.1"
   viewBox="0 0 47.999999 48.000002"
   id="svg12067">
  <defs
     id="defs9" />
  <g
     style="fill:#ffffff;fill-opacity:1"
     transform="matrix(0.04499055,0,0,0.05747354,7.1283179,-6.5968724)"
     id="layer1">
    <path
       style="fill:#ffffff;fill-opacity:1"
       d="m -36.19244,140.88 c -44.45378,0 -88.90756,34.79863 -88.90756,69.59725 v 521.97933 c 0,34.79862 44.45378,69.59724 88.90756,69.59724 h 200.04201 v 69.59725 H 52.715119 c -22.22689,0 -22.22689,0 -22.22689,17.39931 v 17.39931 c 0,17.39931 0,17.39931 22.22689,17.39931 H 697.29493 c 22.22689,0 22.22689,0 22.22689,-17.39931 v -17.39931 c 0,-17.39931 0,-17.39931 -22.22689,-17.39931 H 586.16048 v -69.59725 h 200.042 c 44.45378,0 88.90756,-34.79862 88.90756,-69.59724 V 210.47725 c 0,-34.79862 -44.45378,-69.59725 -88.90756,-69.59725 z m 0,69.59725 H 786.20248 V 715.05727 H -36.19244 Z"
       id="rect5467" />
  </g>
  <metadata
     id="metadata4">
    <rdf:RDF>
      <cc:Work>
        <dc:format>image/svg+xml</dc:format>
        <dc:type
           rdf:resource="http://purl.org/dc/dcmitype/StillImage" />
        <cc:license
           rdf:resource="http://creativecommons.org/publicdomain/zero/1.0/" />
        <dc:title></dc:title>
      </cc:Work>
      <cc:License
         rdf:about="http://creativecommons.org/publicdomain/zero/1.0/">
        <cc:permits
           rdf:resource="http://creativecommons.org/ns#Reproduction" />
        <cc:permits
           rdf:resource="http://creativecommons.org/ns#Distribution" />
        <cc:permits
           rdf:resource="http://creativecommons.org/ns#DerivativeWorks" />
      </cc:License>
    </rdf:RDF>
  </metadata>
  <path
     d="m 29.160129,23.618012 q 0,0.386721 -0.117203,0.609411 -0.117203,0.222614 -0.328139,0.222614 h -1.710909 v 3.187503 q 0,0.09373 -0.04687,0.164031 -0.04687,0.05858 -0.164069,0.105449 -0.117203,0.04687 -0.304706,0.0703 Q 26.300731,28 26.007765,28 q -0.281235,0 -0.468752,-0.02268 -0.187503,-0.02268 -0.304668,-0.0703 -0.105487,-0.04687 -0.152353,-0.105449 -0.03515,-0.0703 -0.03515,-0.164031 v -3.187503 h -6.257809 q -0.140636,0 -0.234368,-0.03402 -0.09377,-0.03401 -0.175786,-0.128877 -0.0703,-0.09373 -0.105449,-0.269481 Q 18.25,23.841911 18.25,23.560639 q 0,-0.222614 0.01172,-0.398438 0.01172,-0.175748 0.04687,-0.316347 0.03515,-0.152315 0.09373,-0.281196 0.05858,-0.140599 0.140636,-0.292914 l 5.460938,-9.210935 q 0.05858,-0.09373 0.164069,-0.164032 0.117203,-0.0703 0.292951,-0.117165 0.175786,-0.04687 0.433595,-0.05858 0.257802,-0.02268 0.609373,-0.02268 0.386722,0 0.667972,0.03402 0.29295,0.02268 0.468749,0.0703 0.175785,0.04687 0.269518,0.128882 0.09373,0.0703 0.09373,0.175748 v 9.679672 h 1.710939 q 0.199219,0 0.316422,0.210898 0.12892,0.199181 0.12892,0.62109 z M 25.04685,14.465697 h -0.02343 l -4.933591,8.32029 h 4.957032 z"
     style="font-style:normal;font-variant:normal;font-weight:normal;font-stretch:normal;font-size:6.3499999px;line-height:125%;font-family:Calibri;-inkscape-font-specification:Calibri;letter-spacing:0px;word-spacing:0px;fill:#ffffff;fill-opacity:1;stroke:none;stroke-width:0.99999994px;stroke-linecap:butt;stroke-linejoin:miter;stroke-opacity:1"
     id="path5248" />
</svg>
