<?xml version="1.0" encoding="UTF-8" standalone="no"?>
<svg
   xmlns:dc="http://purl.org/dc/elements/1.1/"
   xmlns:cc="http://creativecommons.org/ns#"
   xmlns:rdf="http://www.w3.org/1999/02/22-rdf-syntax-ns#"
   xmlns:svg="http://www.w3.org/2000/svg"
   xmlns="http://www.w3.org/2000/svg"
   height="48"
   width="48"
   version="1.1"
   viewBox="0 0 47.999999 48.000002"
   id="svg12067">
  <defs
     id="defs9" />
  <g
     style="fill:#ffffff;fill-opacity:1"
     transform="matrix(0.04499055,0,0,0.05747354,7.1283179,-6.5968724)"
     id="layer1">
    <path
       style="fill:#ffffff;fill-opacity:1"
       d="m -36.19244,140.88 c -44.45378,0 -88.90756,34.79863 -88.90756,69.59725 v 521.97933 c 0,34.79862 44.45378,69.59724 88.90756,69.59724 h 200.04201 v 69.59725 H 52.715119 c -22.22689,0 -22.22689,0 -22.22689,17.39931 v 17.39931 c 0,17.39931 0,17.39931 22.22689,17.39931 H 697.29493 c 22.22689,0 22.22689,0 22.22689,-17.39931 v -17.39931 c 0,-17.39931 0,-17.39931 -22.22689,-17.39931 H 586.16048 v -69.59725 h 200.042 c 44.45378,0 88.90756,-34.79862 88.90756,-69.59724 V 210.47725 c 0,-34.79862 -44.45378,-69.59725 -88.90756,-69.59725 z m 0,69.59725 H 786.20248 V 715.05727 H -36.19244 Z"
       id="rect5467" />
  </g>
  <metadata
     id="metadata4">
    <rdf:RDF>
      <cc:Work>
        <dc:format>image/svg+xml</dc:format>
        <dc:type
           rdf:resource="http://purl.org/dc/dcmitype/StillImage" />
        <cc:license
           rdf:resource="http://creativecommons.org/publicdomain/zero/1.0/" />
        <dc:title></dc:title>
      </cc:Work>
      <cc:License
         rdf:about="http://creativecommons.org/publicdomain/zero/1.0/">
        <cc:permits
           rdf:resource="http://creativecommons.org/ns#Reproduction" />
        <cc:permits
           rdf:resource="http://creativecommons.org/ns#Distribution" />
        <cc:permits
           rdf:resource="http://creativecommons.org/ns#DerivativeWorks" />
      </cc:License>
    </rdf:RDF>
  </metadata>
  <path
     d="m 28.960994,22.867175 q 0,0.996095 -0.304705,1.933607 -0.304706,0.925795 -0.937501,1.640617 Q 27.085974,27.144542 26.11332,27.57813 25.140663,28 23.816445,28 22.867224,28 22.140663,27.76567 21.414101,27.531339 20.875039,27.097714 20.335976,26.66409 19.972695,26.031283 19.621124,25.398477 19.398476,24.589885 19.18754,23.781293 19.09377,22.820348 19,21.859403 19,20.75786 q 0,-0.972662 0.105487,-1.968756 0.105486,-0.996095 0.375004,-1.92189 0.269518,-0.925758 0.726562,-1.73435 0.468752,-0.820308 1.160156,-1.417965 0.703128,-0.609373 1.675782,-0.960945 0.972658,-0.351496 2.261718,-0.351496 0.433595,0 0.878907,0.05858 0.445315,0.04687 0.820312,0.140598 0.375005,0.08202 0.632814,0.187465 0.257802,0.105448 0.339855,0.175748 0.08202,0.05858 0.117203,0.140598 0.04687,0.0703 0.0703,0.164032 0.02343,0.08201 0.03515,0.199181 0.01172,0.105449 0.01172,0.26948 0,0.210898 -0.01172,0.363213 0,0.152315 -0.04687,0.246047 -0.03515,0.09373 -0.105486,0.140598 -0.05858,0.04687 -0.16407,0.04687 -0.128919,0 -0.351571,-0.08202 -0.222652,-0.08201 -0.539063,-0.175747 -0.316422,-0.105449 -0.773439,-0.187465 -0.445311,-0.08202 -1.042968,-0.08202 -1.089846,0 -1.875001,0.445304 -0.785155,0.445342 -1.289061,1.195314 -0.492189,0.750009 -0.738282,1.746104 -0.234368,0.984378 -0.269518,2.062488 0.304706,-0.175748 0.679688,-0.351496 0.386721,-0.175748 0.832033,-0.316347 0.457032,-0.140599 0.960937,-0.222614 0.503906,-0.09373 1.078125,-0.09373 1.230467,0 2.07422,0.339781 0.84375,0.328063 1.359375,0.925795 0.527343,0.58594 0.749999,1.394532 0.222651,0.796876 0.222651,1.73435 z m -2.039063,0.187465 q 0,-0.679673 -0.140636,-1.230463 -0.12892,-0.562507 -0.445311,-0.949191 -0.316422,-0.386721 -0.84375,-0.597657 -0.527346,-0.210897 -1.300781,-0.210897 -0.433595,0 -0.86719,0.08202 -0.433591,0.0703 -0.843749,0.210897 -0.398438,0.128882 -0.773439,0.316347 -0.363288,0.175748 -0.667967,0.386683 0,1.511736 0.187502,2.531263 0.199219,1.019528 0.562504,1.640618 0.375004,0.609374 0.92578,0.878929 0.550779,0.257763 1.289061,0.257763 0.750002,0 1.300781,-0.281196 0.550783,-0.281197 0.914063,-0.75001 0.363289,-0.480491 0.527343,-1.066394 0.175786,-0.597656 0.175786,-1.218784 z"
     style="font-style:normal;font-variant:normal;font-weight:normal;font-stretch:normal;font-size:6.3499999px;line-height:125%;font-family:Calibri;-inkscape-font-specification:Calibri;letter-spacing:0px;word-spacing:0px;fill:#ffffff;fill-opacity:1;stroke:none;stroke-width:0.99999994px;stroke-linecap:butt;stroke-linejoin:miter;stroke-opacity:1"
     id="path5252" />
</svg>
