<?xml version="1.0" encoding="UTF-8" standalone="no"?>
<svg
   xmlns:dc="http://purl.org/dc/elements/1.1/"
   xmlns:cc="http://creativecommons.org/ns#"
   xmlns:rdf="http://www.w3.org/1999/02/22-rdf-syntax-ns#"
   xmlns:svg="http://www.w3.org/2000/svg"
   xmlns="http://www.w3.org/2000/svg"
   height="48"
   width="48"
   version="1.1"
   viewBox="0 0 47.999999 48.000002"
   id="svg12067">
  <defs
     id="defs9" />
  <g
     style="fill:#ffffff;fill-opacity:1"
     transform="matrix(0.04499055,0,0,0.05747354,7.1283179,-6.5968724)"
     id="layer1">
    <path
       style="fill:#ffffff;fill-opacity:1"
       d="m -36.19244,140.88 c -44.45378,0 -88.90756,34.79863 -88.90756,69.59725 v 521.97933 c 0,34.79862 44.45378,69.59724 88.90756,69.59724 h 200.04201 v 69.59725 H 52.715119 c -22.22689,0 -22.22689,0 -22.22689,17.39931 v 17.39931 c 0,17.39931 0,17.39931 22.22689,17.39931 H 697.29493 c 22.22689,0 22.22689,0 22.22689,-17.39931 v -17.39931 c 0,-17.39931 0,-17.39931 -22.22689,-17.39931 H 586.16048 v -69.59725 h 200.042 c 44.45378,0 88.90756,-34.79862 88.90756,-69.59724 V 210.47725 c 0,-34.79862 -44.45378,-69.59725 -88.90756,-69.59725 z m 0,69.59725 H 786.20248 V 715.05727 H -36.19244 Z"
       id="rect5467" />
  </g>
  <metadata
     id="metadata4">
    <rdf:RDF>
      <cc:Work>
        <dc:format>image/svg+xml</dc:format>
        <dc:type
           rdf:resource="http://purl.org/dc/dcmitype/StillImage" />
        <cc:license
           rdf:resource="http://creativecommons.org/publicdomain/zero/1.0/" />
        <dc:title></dc:title>
      </cc:Work>
      <cc:License
         rdf:about="http://creativecommons.org/publicdomain/zero/1.0/">
        <cc:permits
           rdf:resource="http://creativecommons.org/ns#Reproduction" />
        <cc:permits
           rdf:resource="http://creativecommons.org/ns#Distribution" />
        <cc:permits
           rdf:resource="http://creativecommons.org/ns#DerivativeWorks" />
      </cc:License>
    </rdf:RDF>
  </metadata>
  <g
     transform="translate(0.735834,0.570612)"
     id="text854"
     style="font-style:normal;font-variant:normal;font-weight:normal;font-stretch:normal;font-size:24px;line-height:125%;font-family:Calibri;-inkscape-font-specification:Calibri;letter-spacing:0px;word-spacing:0px;fill:#ffffff;fill-opacity:1;stroke:none;stroke-width:1px;stroke-linecap:butt;stroke-linejoin:miter;stroke-opacity:1"
     aria-label="?">
    <path
       id="path826"
       d="m 28.195091,15.698921 q 0,1.03125 -0.292969,1.828125 -0.292969,0.796875 -0.820312,1.359375 -0.527344,0.5625 -1.265625,0.878907 -0.738282,0.316406 -1.640625,0.375 l -0.08203,2.824218 q 0,0.175782 -0.210937,0.269532 -0.199219,0.08203 -0.65625,0.08203 -0.246094,0 -0.421875,-0.01172 -0.175781,-0.02344 -0.28125,-0.05859 -0.105469,-0.04687 -0.152344,-0.117187 -0.04687,-0.07031 -0.04687,-0.164063 l -0.07031,-3.246093 q -0.01172,-0.269532 0.03516,-0.433594 0.05859,-0.175781 0.164062,-0.28125 0.105469,-0.117188 0.269532,-0.152344 0.164062,-0.04687 0.375,-0.04687 h 0.257812 q 0.761719,0 1.300781,-0.234375 0.539063,-0.246094 0.867188,-0.644531 0.339844,-0.398438 0.492187,-0.9375 0.152344,-0.539063 0.152344,-1.125 0,-0.667969 -0.1875,-1.21875 -0.1875,-0.5625 -0.5625,-0.960938 -0.375,-0.410156 -0.949219,-0.632812 -0.5625,-0.222656 -1.335937,-0.222656 -0.679688,0 -1.195313,0.152343 -0.503906,0.140625 -0.878906,0.316407 -0.375,0.175781 -0.621094,0.316406 -0.234375,0.140625 -0.351562,0.140625 -0.08203,0 -0.152344,-0.03516 -0.05859,-0.03516 -0.105469,-0.128907 -0.04687,-0.105468 -0.07031,-0.269531 -0.02344,-0.175781 -0.02344,-0.433594 0,-0.28125 0.03516,-0.421875 0.03516,-0.152343 0.152343,-0.257812 0.117188,-0.117188 0.445313,-0.292969 0.339844,-0.1875 0.808594,-0.339844 0.480468,-0.152343 1.042968,-0.257812 0.574219,-0.105469 1.183594,-0.105469 1.253906,0 2.15625,0.363281 0.902344,0.351563 1.488281,0.960938 0.585938,0.609375 0.867188,1.429687 0.28125,0.820313 0.28125,1.734375 z m -3.703125,10.394532 q 0,0.386718 -0.05859,0.644531 -0.04687,0.246094 -0.1875,0.410156 -0.140625,0.152344 -0.386719,0.210938 -0.234375,0.07031 -0.585937,0.07031 -0.375,0 -0.609375,-0.07031 -0.234375,-0.05859 -0.386719,-0.210938 -0.140625,-0.164062 -0.199219,-0.410156 -0.04687,-0.257813 -0.04687,-0.644531 0,-0.386719 0.04687,-0.644532 0.05859,-0.269531 0.199219,-0.410156 0.152344,-0.152344 0.386719,-0.210937 0.234375,-0.07031 0.609375,-0.07031 0.351562,0 0.585937,0.07031 0.246094,0.05859 0.386719,0.210937 0.140625,0.140625 0.1875,0.410156 0.05859,0.257813 0.05859,0.644532 z" />
  </g>
</svg>
