<?xml version="1.0" encoding="UTF-8" standalone="no"?>
<svg
   xmlns:dc="http://purl.org/dc/elements/1.1/"
   xmlns:cc="http://creativecommons.org/ns#"
   xmlns:rdf="http://www.w3.org/1999/02/22-rdf-syntax-ns#"
   xmlns:svg="http://www.w3.org/2000/svg"
   xmlns="http://www.w3.org/2000/svg"
   height="32"
   width="32"
   x="0"
   y="0"
   version="1.0"
   viewBox="0 0 32 32"
   id="svg1468">
  <path
     d="m 3.9999998,8.9999995 c -2,0 -2,0 -2,2.0000005 v 10.999999 c 0,2 0,2 2,2 H 26.99999 c 2,0 2,0 2,-2 L 29,11 C 29,8.9999995 29,8.9999995 27,8.9999995 Z M 4.6666673,11 H 26.33333 c 0.666667,0 0.66666,0 0.66666,0.666668 v 9.666666 c 0,0.666665 7e-6,0.666665 -0.66666,0.666665 H 4.6666673 c -0.6666675,0 -0.6666675,0 -0.6666675,-0.666665 V 11.666668 C 3.9999998,11 3.9999998,11 4.6666673,11 Z"
     id="rect2700"
     style="fill:#ffffff" />
  <path
     d="m 7.4999999,14.000333 c 0.5,0 0.5,0 0.5,-0.5 0,-0.5 0,-0.5 -0.5,-0.5 C 7,13.000333 7,13.000333 7,13.500333 c 0,0.5 0,0.5 0.4999999,0.5 z"
     id="path2913"
     style="fill:#ffffff" />
  <path
     d="m 5.4999994,14.000333 c 0.5040058,0 0.4999999,3.66e-4 0.4999999,-0.5 -1.3e-6,-0.499643 -0.00202,-0.500001 -0.4999999,-0.5 -0.502016,-10e-7 -0.5,3.66e-4 -0.5,0.5 0,0.500356 0.00401,0.5 0.5,0.5 z"
     id="path2706-2-8"
     style="fill:#ffffff" />
  <path
     d="m 11.5,14.000333 c 0.5,0 0.5,0 0.5,-0.5 0,-0.5 0,-0.5 -0.5,-0.5 -0.5,0 -0.5,0 -0.5,0.5 0,0.5 0,0.5 0.5,0.5 z"
     id="path2917"
     style="fill:#ffffff" />
  <path
     d="m 9.4999994,14.000333 c 0.5040056,0 0.4999998,3.66e-4 0.4999998,-0.5 -1.2e-6,-0.499643 -0.00202,-0.500001 -0.4999998,-0.5 -0.502016,-10e-7 -0.5,3.66e-4 -0.5,0.5 0,0.500356 0.00401,0.5 0.5,0.5 z"
     id="path2866"
     style="fill:#ffffff" />
  <path
     d="m 15.500001,14.000333 c 0.499998,0 0.499998,0 0.499998,-0.5 0,-0.5 0,-0.5 -0.499998,-0.5 -0.500001,0 -0.500001,0 -0.500001,0.5 0,0.5 0,0.5 0.500001,0.5 z"
     id="path2921"
     style="fill:#ffffff" />
  <path
     d="m 13.499999,14.000333 c 0.504006,0 0.5,3.66e-4 0.5,-0.5 -1e-6,-0.499643 -0.002,-0.500001 -0.5,-0.5 -0.502016,-10e-7 -0.5,3.66e-4 -0.5,0.5 0,0.500356 0.004,0.5 0.5,0.5 z"
     id="path2868"
     style="fill:#ffffff" />
  <path
     d="m 19.5,14.000333 c 0.5,0 0.5,0 0.5,-0.5 0,-0.5 0,-0.5 -0.5,-0.5 -0.499999,0 -0.499999,0 -0.499999,0.5 0,0.5 0,0.5 0.499999,0.5 z"
     id="path2925"
     style="fill:#ffffff" />
  <path
     d="m 17.499999,14.000333 c 0.504006,0 0.500001,3.66e-4 0.500001,-0.5 -2e-6,-0.499643 -0.002,-0.500001 -0.500001,-0.5 -0.502015,-10e-7 -0.5,3.66e-4 -0.5,0.5 0,0.500356 0.004,0.5 0.5,0.5 z"
     id="path2870"
     style="fill:#ffffff" />
  <path
     d="m 23.500001,14.000333 c 0.5,0 0.5,0 0.5,-0.5 0,-0.5 0,-0.5 -0.5,-0.5 -0.499999,0 -0.499999,0 -0.499999,0.5 0,0.5 0,0.5 0.499999,0.5 z"
     id="path2929"
     style="fill:#ffffff" />
  <path
     d="m 21.5,14.000333 c 0.504006,0 0.500001,3.66e-4 0.500001,-0.5 -2e-6,-0.499643 -0.002,-0.500001 -0.500001,-0.5 -0.502015,-10e-7 -0.5,3.66e-4 -0.5,0.5 0,0.500356 0.004,0.5 0.5,0.5 z"
     id="path2874"
     style="fill:#ffffff" />
  <path
     d="m 25.500001,14.000333 c 0.5,0 0.5,0 0.5,-0.5 0,-0.5 0,-0.5 -0.5,-0.5 -0.499999,0 -0.499999,0 -0.499999,0.5 0,0.5 0,0.5 0.499999,0.5 z"
     id="path2876"
     style="fill:#ffffff" />
  <path
     id="path2935"
     d="m 10.5,20.000001 h 10 c 0.502035,0 0.5,0 0.5,-0.500001 0,-0.499999 -0.0035,-0.499999 -0.5,-0.499999 h -10 c -0.5020364,0 -0.5,0 -0.5,0.499999 0,0.500001 -0.00204,0.500001 0.5,0.500001 z"
     style="fill:#ffffff" />
  <path
     d="m 5.5,20.000001 h 3 c 0.5020367,0 0.5,0 0.5,-0.500001 0,-0.499999 -0.00349,-0.499999 -0.5,-0.499999 h -3 c -0.5020369,0 -0.4999999,0 -0.4999999,0.499999 0,0.500001 -0.00204,0.500001 0.4999999,0.500001 z"
     id="path2706-2-8-7-4-6"
     style="fill:#ffffff" />
  <path
     id="path2706-2-0-3-3-3-4"
     d="m 22.5,20.000001 h 3 c 0.502036,0 0.5,0 0.5,-0.500001 0,-0.499999 0.0019,-0.499999 -0.5,-0.499999 h -3 c -0.502037,0 -0.5,0 -0.5,0.499999 0,0.500001 -0.0019,0.500001 0.5,0.500001 z"
     style="fill:#ffffff" />
  <path
     d="m 11.5,18.000001 c 0.5,0 0.5,0 0.5,-0.500001 0,-0.499999 0,-0.499999 -0.5,-0.499999 -0.5,0 -0.5,0 -0.5,0.499999 0,0.500001 0,0.500001 0.5,0.500001 z"
     id="path2943"
     style="fill:#ffffff" />
  <path
     d="m 9.4999997,18.000001 c 0.5000002,0 0.5000002,0 0.5000002,-0.500001 0,-0.499999 0,-0.499999 -0.5000002,-0.499999 C 9,17.000001 9,17.000001 9,17.5 c 0,0.500001 0,0.500001 0.4999997,0.500001 z"
     id="path2941"
     style="fill:#ffffff" />
  <path
     d="m 7.5000007,18.000001 c 0.5040059,0 0.4999997,3.66e-4 0.4999997,-0.500001 C 7.9999989,17.000359 7.9980057,17 7.5000007,17.000001 6.9979839,17 7.0000005,17.000367 7.0000005,17.5 c 0,0.500358 0.00401,0.500001 0.5000002,0.500001 z"
     id="path2706-2-8-4"
     style="fill:#ffffff" />
  <path
     d="M 25.499998,18.000001 C 26,18.000001 26,18.000001 26,17.5 c 0,-0.499999 0,-0.499999 -0.500002,-0.499999 -0.5,0 -0.5,0 -0.5,0.499999 0,0.500001 0,0.500001 0.5,0.500001 z"
     id="path2953"
     style="fill:#ffffff" />
  <path
     d="m 19.500003,18.000001 c 0.499998,0 0.499998,0 0.499998,-0.500001 0,-0.499999 0,-0.499999 -0.499998,-0.499999 -0.500002,0 -0.500002,0 -0.500002,0.499999 0,0.500001 0,0.500001 0.500002,0.500001 z"
     id="path2951"
     style="fill:#ffffff" />
  <path
     d="m 17.500001,18.000001 c 0.5,0 0.5,0 0.5,-0.500001 0,-0.499999 0,-0.499999 -0.5,-0.499999 C 17,17.000001 17,17.000001 17,17.5 c 0,0.500001 0,0.500001 0.500001,0.500001 z"
     id="path2949"
     style="fill:#ffffff" />
  <path
     d="m 15.5,18.000001 c 0.5,0 0.5,0 0.5,-0.500001 0,-0.499999 0,-0.499999 -0.5,-0.499999 -0.5,0 -0.5,0 -0.5,0.499999 0,0.500001 0,0.500001 0.5,0.500001 z"
     id="path2947"
     style="fill:#ffffff" />
  <path
     d="m 13.5,18.000001 c 0.5,0 0.5,0 0.5,-0.500001 0,-0.499999 0,-0.499999 -0.5,-0.499999 -0.500001,0 -0.500001,0 -0.500001,0.499999 0,0.500001 0,0.500001 0.500001,0.500001 z"
     id="path2832"
     style="fill:#ffffff" />
  <path
     d="M 23.499998,18.000001 C 24,18.000001 24,18.000001 24,17.5 c 0,-0.499999 0,-0.499999 -0.500002,-0.499999 -0.5,0 -0.5,0 -0.5,0.499999 0,0.500001 0,0.500001 0.5,0.500001 z"
     id="path2834"
     style="fill:#ffffff" />
  <path
     d="M 21.499998,18.000001 C 22,18.000001 22,18.000001 22,17.5 c 0,-0.499999 0,-0.499999 -0.500002,-0.499999 -0.5,0 -0.5,0 -0.5,0.499999 0,0.500001 0,0.500001 0.5,0.500001 z"
     id="path2836"
     style="fill:#ffffff" />
  <path
     d="m 5.5,18.000001 c 0.5000001,0 0.5000001,0 0.5000001,-0.500001 0,-0.499999 0,-0.499999 -0.5000001,-0.499999 -0.5,0 -0.5,0 -0.5,0.499999 0,0.500001 0,0.500001 0.5,0.500001 z"
     id="path2838"
     style="fill:#ffffff" />
  <path
     d="m 21.5,15.999864 c 0.477611,0 0.477611,0 0.477611,-0.499565 0,-0.499565 0,-0.499565 -0.477611,-0.499565 -0.477612,0 -0.477612,0 -0.477612,0.499565 0,0.499565 0,0.499565 0.477612,0.499565 z"
     id="path2909"
     style="fill:#ffffff" />
  <path
     d="m 19.5,15.999864 c 0.477612,0 0.477612,0 0.477612,-0.499565 0,-0.499565 0,-0.499565 -0.477612,-0.499565 -0.477612,0 -0.477612,0 -0.477612,0.499565 0,0.499565 0,0.499565 0.477612,0.499565 z"
     id="path2907"
     style="fill:#ffffff" />
  <path
     d="m 17.499999,15.999864 c 0.477613,0 0.477613,0 0.477613,-0.499565 0,-0.499565 0,-0.499565 -0.477613,-0.499565 -0.477612,0 -0.477612,0 -0.477612,0.499565 0,0.499565 0,0.499565 0.477612,0.499565 z"
     id="path2905"
     style="fill:#ffffff" />
  <path
     d="m 15.500001,15.999864 c 0.47761,0 0.47761,0 0.47761,-0.499565 0,-0.499565 0,-0.499565 -0.47761,-0.499565 -0.477612,0 -0.477612,0 -0.477612,0.499565 0,0.499565 0,0.499565 0.477612,0.499565 z"
     id="path2903"
     style="fill:#ffffff" />
  <path
     d="m 13.5,15.999864 c 0.477612,0 0.477612,0 0.477612,-0.499565 0,-0.499565 0,-0.499565 -0.477612,-0.499565 -0.477612,0 -0.477612,0 -0.477612,0.499565 0,0.499565 0,0.499565 0.477612,0.499565 z"
     id="path2901"
     style="fill:#ffffff" />
  <path
     d="m 11.5,15.999864 c 0.477612,0 0.477612,0 0.477612,-0.499565 0,-0.499565 0,-0.499565 -0.477612,-0.499565 -0.477612,0 -0.477612,0 -0.477612,0.499565 0,0.499565 0,0.499565 0.477612,0.499565 z"
     id="path2706-2-8-4-7"
     style="fill:#ffffff" />
  <path
     d="m 23.500001,15.999864 h 2 c 0.497142,0 0.500306,0 0.500306,-0.499565 0,-0.499565 -0.0032,-0.499565 -0.500306,-0.499565 l -2,-10e-7 c -0.497143,0 -0.499999,0 -0.499999,0.499565 0,0.502077 -0.0039,0.499566 0.499999,0.499566 z"
     id="path2897"
     style="fill:#ffffff" />
  <path
     d="m 9.5,15.999864 c 0.4776121,0 0.4776121,0 0.4776121,-0.499565 0,-0.499565 0,-0.499565 -0.4776121,-0.499565 -0.477612,0 -0.477612,0 -0.477612,0.499565 0,0.499565 0,0.499565 0.477612,0.499565 z"
     id="path2828"
     style="fill:#ffffff" />
  <path
     d="m 5.4776116,15.999864 c 0.068432,0 1.9721425,-1.46e-4 2.0223885,0 0.477612,0.0015 0.5,0 0.5,-0.499558 0,-0.499572 -0.022388,-0.504441 -0.5,-0.499572 -0.063051,6.4e-4 -1.9210972,8e-6 -2.0223885,8e-6 -0.4795377,0 -0.477612,3.66e-4 -0.477612,0.499565 0,0.499923 0.00383,0.499565 0.477612,0.499565 z"
     id="path2830"
     style="fill:#ffffff" />
  <metadata
     id="metadata11">
    <rdf:RDF>
      <cc:Work>
        <dc:format>image/svg+xml</dc:format>
        <dc:type
           rdf:resource="http://purl.org/dc/dcmitype/StillImage" />
        <cc:license
           rdf:resource="http://creativecommons.org/publicdomain/zero/1.0/" />
        <dc:title></dc:title>
      </cc:Work>
      <cc:License
         rdf:about="http://creativecommons.org/publicdomain/zero/1.0/">
        <cc:permits
           rdf:resource="http://creativecommons.org/ns#Reproduction" />
        <cc:permits
           rdf:resource="http://creativecommons.org/ns#Distribution" />
        <cc:permits
           rdf:resource="http://creativecommons.org/ns#DerivativeWorks" />
      </cc:License>
    </rdf:RDF>
  </metadata>
</svg>
