<?xml version="1.0" encoding="UTF-8" standalone="no"?>
<svg
   id="svg1468"
   viewBox="0 0 32 32"
   version="1.0"
   y="0"
   x="0"
   width="32"
   height="32"
   xmlns="http://www.w3.org/2000/svg"
   xmlns:svg="http://www.w3.org/2000/svg"
   xmlns:rdf="http://www.w3.org/1999/02/22-rdf-syntax-ns#"
   xmlns:cc="http://creativecommons.org/ns#"
   xmlns:dc="http://purl.org/dc/elements/1.1/">
  <defs
     id="defs14" />
  <path
     id="rect2700"
     style="color:#000000;font-style:normal;font-variant:normal;font-weight:normal;font-stretch:normal;font-size:medium;line-height:normal;font-family:sans-serif;font-variant-ligatures:normal;font-variant-position:normal;font-variant-caps:normal;font-variant-numeric:normal;font-variant-alternates:normal;font-feature-settings:normal;text-indent:0;text-align:start;text-decoration:none;text-decoration-line:none;text-decoration-style:solid;text-decoration-color:#000000;letter-spacing:normal;word-spacing:normal;text-transform:none;writing-mode:lr-tb;direction:ltr;text-orientation:mixed;dominant-baseline:auto;baseline-shift:baseline;text-anchor:start;white-space:normal;shape-padding:0;clip-rule:nonzero;display:inline;overflow:visible;visibility:visible;opacity:1;isolation:auto;mix-blend-mode:normal;color-interpolation:sRGB;color-interpolation-filters:linearRGB;solid-color:#000000;solid-opacity:1;vector-effect:none;fill:#ffffff;fill-opacity:1;fill-rule:nonzero;stroke:none;stroke-width:1.40966;stroke-linecap:round;stroke-linejoin:round;stroke-miterlimit:4;stroke-dasharray:none;stroke-dashoffset:0;stroke-opacity:1;color-rendering:auto;image-rendering:auto;shape-rendering:auto;text-rendering:auto;enable-background:accumulate"
     d="m 3,5 c -2.00708359,0 -2,2.7e-6 -2,2 v 18 c 0,1.999998 -0.004633,2 2,2 h 18.5 c 0.996939,0 1,-0.004 1,-1 0,-1.001686 -0.0027,-1 -1,-1 H 4 C 3.0015444,25 3,25.0026 3,24 V 8 C 3,7.001302 3.00154,7 4,7 h 24 c 0.998456,0 1,0.0013 1,1 v 11.5 c 0,1 0,1 1,1 1,0 1,0 1,-1 V 7 C 31,5.0000027 30.999274,5 29,5 Z" />
  <path
     id="path2188"
     d="m 28,16.999783 -8.701233,4.33e-4 -1.947664,2.313501 -2.15724,-4.558947 -1.894956,5.345286 L 11.195631,11.499871 8.9066235,18 H 4"
     style="color:#000000;font-style:normal;font-variant:normal;font-weight:normal;font-stretch:normal;font-size:medium;line-height:normal;font-family:sans-serif;font-variant-ligatures:normal;font-variant-position:normal;font-variant-caps:normal;font-variant-numeric:normal;font-variant-alternates:normal;font-feature-settings:normal;text-indent:0;text-align:start;text-decoration:none;text-decoration-line:none;text-decoration-style:solid;text-decoration-color:#000000;letter-spacing:normal;word-spacing:normal;text-transform:none;writing-mode:lr-tb;direction:ltr;text-orientation:mixed;dominant-baseline:auto;baseline-shift:baseline;text-anchor:start;white-space:normal;shape-padding:0;clip-rule:nonzero;display:inline;overflow:visible;visibility:visible;opacity:1;isolation:auto;mix-blend-mode:normal;color-interpolation:sRGB;color-interpolation-filters:linearRGB;solid-color:#000000;solid-opacity:1;fill:none;fill-opacity:0.416185;fill-rule:evenodd;stroke:#ffffff;stroke-width:1;stroke-linecap:butt;stroke-linejoin:round;stroke-miterlimit:10;stroke-dasharray:none;stroke-dashoffset:0;stroke-opacity:1;paint-order:normal;color-rendering:auto;image-rendering:auto;shape-rendering:auto;text-rendering:auto;enable-background:accumulate" />
  <metadata
     id="metadata11">
    <rdf:RDF>
      <cc:Work>
        <dc:format>image/svg+xml</dc:format>
        <dc:type
           rdf:resource="http://purl.org/dc/dcmitype/StillImage" />
        <cc:license
           rdf:resource="http://creativecommons.org/publicdomain/zero/1.0/" />
      </cc:Work>
      <cc:License
         rdf:about="http://creativecommons.org/publicdomain/zero/1.0/">
        <cc:permits
           rdf:resource="http://creativecommons.org/ns#Reproduction" />
        <cc:permits
           rdf:resource="http://creativecommons.org/ns#Distribution" />
        <cc:permits
           rdf:resource="http://creativecommons.org/ns#DerivativeWorks" />
      </cc:License>
    </rdf:RDF>
  </metadata>
  <g
     id="g1722">
    <path
       d="M 27.550503,27.659921 C 28.86116,27.659921 29.95,26.56059 29.95,25.25 c 0,-1.310657 -1.089342,-2.4 -2.4,-2.4 -0.911935,0 -1.73782,0.572564 -2.136273,1.328227 H 23.898721 C 24.371428,22.628002 25.845175,21.5 27.55,21.5 c 2.089285,0 3.75,1.660715 3.75,3.75 0,2.089217 -1.660715,3.75 -3.75,3.75 -1.088967,0 -2.159686,-0.463622 -2.85,-1.2 l 1.05,-0.9 c 0.433404,0.462865 1.116416,0.759921 1.799498,0.759921 z"
       id="path845"
       style="fill:#ffffff;stroke-width:1;stroke-dasharray:none" />
    <path
       d="m 23.500001,22.7 -1e-6,3.15 3,-0.9 z"
       id="path849"
       style="fill:#ffffff;stroke-width:1;stroke-dasharray:none" />
  </g>
</svg>
