<?xml version="1.0" encoding="UTF-8" standalone="no"?>
<svg
   xmlns:dc="http://purl.org/dc/elements/1.1/"
   xmlns:cc="http://creativecommons.org/ns#"
   xmlns:rdf="http://www.w3.org/1999/02/22-rdf-syntax-ns#"
   xmlns:svg="http://www.w3.org/2000/svg"
   xmlns="http://www.w3.org/2000/svg"
   id="svg1468"
   viewBox="0 0 32 32"
   version="1.0"
   y="0"
   x="0"
   width="32"
   height="32">
  <defs
     id="defs9" />
  <path
     style="opacity:1;fill:none;fill-opacity:1;stroke:#ffffff;stroke-width:1;stroke-linecap:round;stroke-linejoin:round;stroke-miterlimit:10;stroke-dasharray:none;stroke-dashoffset:0;stroke-opacity:1;paint-order:normal"
     d="M 13.5,21.5 H 4 l -2,8 h 28 l -2,-8 h -9.5"
     id="path818" />
  <path
     style="fill:#ffffff;stroke:#ffffff;stroke-width:1px;stroke-linecap:butt;stroke-linejoin:miter;stroke-opacity:1"
     d="m 10.5,4.5 v 7 c 0,0.995586 2.5e-4,2 2,2 h 7 c 2.004215,0 2,-1.0029 2,-2 l -1e-6,-7 c 0,-0.9983299 -1.0017,-3 -3,-3 H 13.5 c -2.001818,0 -3,2.0005845 -3,3 z"
     id="path13" />
  <path
     style="fill:#ffffff;stroke:#ffffff;stroke-width:1px;stroke-linecap:butt;stroke-linejoin:miter;stroke-opacity:1"
     d="m 14,15.5 c 1,0 3,2e-6 4,2e-6 -1,-3e-6 -3,-2e-6 -4,-2e-6 z"
     id="path13-1" />
  <path
     style="fill:#ffffff;stroke:#ffffff;stroke-width:1px;stroke-linecap:butt;stroke-linejoin:miter;stroke-opacity:1"
     d="m 9.5,18.5 v 1 h 13 v -1 c 0,-0.997525 0.0037,-1 -2,-1 h -9 c -1.9951731,0 -2,-0.0028 -2,1 z"
     id="path13-1-8" />
  <path
     id="path13-1-8-2"
     style="fill:#ffffff;stroke:none;stroke-width:1px;stroke-linecap:butt;stroke-linejoin:miter;stroke-opacity:1"
     d="m 15,21 v 3 l -4,1 c -0.96458,0.258459 -1,0.447715 -1,1 v 1 c 0,0.552285 0.447715,1 1,1 0.552285,0 1,-0.447715 1,-1 1,-1 2,-1 3,-1 v 1 c 0,0.552285 0.447715,1 1,1 0.552285,0 1,-0.447715 1,-1 v -1 c 1,0 2,0 3,1 0,0.552285 0.447715,1 1,1 0.552285,0 1,-0.447715 1,-1 v -1 c 0,-0.552285 -0.03542,-0.741541 -1,-1 l -4,-1 v -3 z" />
  <metadata
     id="metadata11">
    <rdf:RDF>
      <cc:Work>
        <dc:format>image/svg+xml</dc:format>
        <dc:type
           rdf:resource="http://purl.org/dc/dcmitype/StillImage" />
        <cc:license
           rdf:resource="http://creativecommons.org/publicdomain/zero/1.0/" />
        <dc:title></dc:title>
      </cc:Work>
      <cc:License
         rdf:about="http://creativecommons.org/publicdomain/zero/1.0/">
        <cc:permits
           rdf:resource="http://creativecommons.org/ns#Reproduction" />
        <cc:permits
           rdf:resource="http://creativecommons.org/ns#Distribution" />
        <cc:permits
           rdf:resource="http://creativecommons.org/ns#DerivativeWorks" />
      </cc:License>
    </rdf:RDF>
  </metadata>
</svg>
