<?xml version="1.0" encoding="UTF-8" standalone="no"?>
<svg
   xmlns:dc="http://purl.org/dc/elements/1.1/"
   xmlns:cc="http://creativecommons.org/ns#"
   xmlns:rdf="http://www.w3.org/1999/02/22-rdf-syntax-ns#"
   xmlns:svg="http://www.w3.org/2000/svg"
   xmlns="http://www.w3.org/2000/svg"
   version="1.1"
   viewBox="0 0 48 48"
   id="svg2995">
  <defs
     id="defs8" />
  <g
     id="layer1">
    <path
       d="M 24.005206,1.5 C 22.707484,1.5 21.434,1.6167113 20.196354,1.8276499 L 19.592763,8.2270142 C 18.312771,8.583807 17.101344,9.08269 15.968195,9.721862 L 11.022516,5.6365416 C 8.9333346,7.1152623 7.1047349,8.933224 5.6263127,11.021861 l 4.0955577,4.945448 C 9.0834308,17.09915 8.5734431,18.313607 8.2167581,19.591915 L 1.8276465,20.196013 C 1.6165875,21.434049 1.5,22.706791 1.5,24.004904 c 0,1.300377 0.1158613,2.568875 0.3276465,3.808892 l 6.3891116,0.604126 c 0.3567321,1.278307 0.8666822,2.492765 1.5051123,3.624606 l -4.0852778,4.945447 c 1.4757815,2.083262 3.292215,3.9099 5.3754554,5.385697 l 4.955581,-4.0956 c 1.133903,0.639766 2.343633,1.148156 3.624568,1.505128 l 0.604091,6.399364 C 21.433934,46.393522 22.707418,46.5 24.00514,46.5 c 1.297722,0 2.56102,-0.106469 3.798666,-0.317436 L 28.407898,39.7832 c 1.280934,-0.356944 2.490664,-0.865362 3.624567,-1.505128 l 4.955582,4.0956 c 2.083145,-1.475891 3.899579,-3.302529 5.375455,-5.385697 l -4.085278,-4.945447 c 0.638439,-1.131841 1.148427,-2.346299 1.505112,-3.624606 l 6.389017,-0.604126 C 46.384139,26.573779 46.5,25.305281 46.5,24.004904 c 0,-1.298207 -0.116578,-2.57095 -0.327647,-3.808891 L 39.783336,19.591915 C 39.426604,18.313607 38.916654,17.09915 38.278224,15.967309 l 4.095558,-4.945448 C 40.894982,8.933224 39.066288,7.1152623 36.977295,5.6365416 L 32.031899,9.721862 C 30.89875,9.082652 29.687323,8.583797 28.407332,8.2270142 L 27.802797,1.8276499 C 26.565151,1.6167113 25.301853,1.5 24.004131,1.5 Z m 0,13.935568 c 4.732347,0 8.559684,3.837656 8.559684,8.570053 0,4.732397 -3.827337,8.570053 -8.559684,8.570053 -4.732347,0 -8.569964,-3.837656 -8.569964,-8.570053 0,-4.732397 3.837617,-8.570053 8.569964,-8.570053 z"
       style="fill:#ffffff;fill-opacity:1;stroke-width:0.94311684"
       id="path2989" />
  </g>
  <metadata
     id="metadata5">
    <rdf:RDF>
      <cc:Work>
        <dc:format>image/svg+xml</dc:format>
        <dc:type
           rdf:resource="http://purl.org/dc/dcmitype/StillImage" />
        <cc:license
           rdf:resource="http://creativecommons.org/publicdomain/zero/1.0/" />
        <dc:title></dc:title>
      </cc:Work>
      <cc:License
         rdf:about="http://creativecommons.org/publicdomain/zero/1.0/">
        <cc:permits
           rdf:resource="http://creativecommons.org/ns#Reproduction" />
        <cc:permits
           rdf:resource="http://creativecommons.org/ns#Distribution" />
        <cc:permits
           rdf:resource="http://creativecommons.org/ns#DerivativeWorks" />
      </cc:License>
    </rdf:RDF>
  </metadata>
</svg>
