<?xml version="1.0" encoding="UTF-8" standalone="no"?>
<svg
   xmlns:dc="http://purl.org/dc/elements/1.1/"
   xmlns:cc="http://creativecommons.org/ns#"
   xmlns:rdf="http://www.w3.org/1999/02/22-rdf-syntax-ns#"
   xmlns:svg="http://www.w3.org/2000/svg"
   xmlns="http://www.w3.org/2000/svg"
   viewBox="0 0 32 32"
   version="1.1"
   id="svg851"
   width="32"
   height="32">
  <defs
     id="defs855" />
  <path
     d="M 15.998326,24.03307 C 11.629469,24.03307 8,20.368634 8,16 c 0,-4.368857 3.631143,-8 8,-8 3.039787,0 5.792733,1.9085496 7.12091,4.427422 h 5.05002 C 26.59524,7.2600068 21.68275,3.5 16,3.5 9.0357184,3.5 3.5,9.0357184 3.5,16 c 0,6.964058 5.5357184,12.5 12.5,12.5 3.62989,0 7.198957,-1.545406 9.5,-4 l -3.5,-3 c -1.44468,1.542882 -3.721387,2.53307 -5.998326,2.53307 z"
     id="path845"
     style="fill:#ffffff;stroke-width:1" />
  <path
     d="M 29.499999,7.5 29.5,18 19.5,15 Z"
     id="path849"
     style="fill:#ffffff;stroke-width:1" />
  <metadata
     id="metadata11">
    <rdf:RDF>
      <cc:Work>
        <dc:format>image/svg+xml</dc:format>
        <dc:type
           rdf:resource="http://purl.org/dc/dcmitype/StillImage" />
        <cc:license
           rdf:resource="http://creativecommons.org/publicdomain/zero/1.0/" />
        <dc:title></dc:title>
      </cc:Work>
      <cc:License
         rdf:about="http://creativecommons.org/publicdomain/zero/1.0/">
        <cc:permits
           rdf:resource="http://creativecommons.org/ns#Reproduction" />
        <cc:permits
           rdf:resource="http://creativecommons.org/ns#Distribution" />
        <cc:permits
           rdf:resource="http://creativecommons.org/ns#DerivativeWorks" />
      </cc:License>
    </rdf:RDF>
  </metadata>
</svg>
