<?xml version="1.0" encoding="UTF-8" standalone="no"?>
<svg
   height="32"
   width="32"
   version="1.1"
   viewBox="0 0 32 32"
   id="svg2"
   xmlns="http://www.w3.org/2000/svg"
   xmlns:svg="http://www.w3.org/2000/svg"
   xmlns:rdf="http://www.w3.org/1999/02/22-rdf-syntax-ns#"
   xmlns:cc="http://creativecommons.org/ns#"
   xmlns:dc="http://purl.org/dc/elements/1.1/">
  <defs
     id="defs12" />
  <g
     transform="translate(0,-1020.4)"
     id="layer1">
    <path
       id="rect5404-5-9-9-1-5-0-1"
       style="fill:#ffffff;stroke-width:0.430751"
       d="m 16,1023.4 -5,5 h 3 v 0.5 c 0,1.0031 6.59e-4,1 1,1 h 2 c 1.004019,0 1,0 1,-1 v -0.5 h 3 z m -8,8 -5,5 5,5 v -3 h 0.5 c 1.001591,0 1,0 1,-1 v -2 c 0,-1.0029 -0.00478,-1 -1,-1 H 8 Z m 16,0 v 3 h -0.5 c -0.995968,0 -1,0 -1,1 v 2 c 0,1.0021 0.0048,1 1,1 H 24 v 3 l 5,-5 z m -10,12.5 v 0.5 h -3 l 5,5 5,-5 h -3 v -0.5 c 0,-1.0035 -0.0023,-1 -1,-1 h -2 c -1.003621,0 -1,-0.01 -1,1 z" />
  </g>
  <metadata
     id="metadata11">
    <rdf:RDF>
      <cc:Work>
        <dc:format>image/svg+xml</dc:format>
        <dc:type
           rdf:resource="http://purl.org/dc/dcmitype/StillImage" />
        <cc:license
           rdf:resource="http://creativecommons.org/publicdomain/zero/1.0/" />
      </cc:Work>
      <cc:License
         rdf:about="http://creativecommons.org/publicdomain/zero/1.0/">
        <cc:permits
           rdf:resource="http://creativecommons.org/ns#Reproduction" />
        <cc:permits
           rdf:resource="http://creativecommons.org/ns#Distribution" />
        <cc:permits
           rdf:resource="http://creativecommons.org/ns#DerivativeWorks" />
      </cc:License>
    </rdf:RDF>
  </metadata>
  <path
     d="m 20.5,15 c 0,-2.342117 -2.0803,-4.5 -4.4995,-4.5 -2.4193,0 -4.5005,2.157883 -4.5005,4.5 -0.999098,0 -1,2.06e-4 -1,1 v 4.5 c 0,0.997762 -0.0037,1 1,1 h 9 c 0.999098,0 1,0.0037 1,-1 V 16 c 0,-1.003521 0.0037,-1 -1,-1 z m -7.0002,0 c 0,-1.381281 1.0735,-2.5 2.5003,-2.5 1.4268,0 2.4999,1.118719 2.4999,2.5 H 13.5002 Z M 16.4995,18.350097 16.499914,20 c 0,0.503719 -0.0011,0.5 -0.499914,0.5 -0.500272,0 -0.5,-0.0012 -0.5,-0.5 V 18.35 C 15.2515,18.173032 15,17.821795 15,17.5 c 0,-0.537294 0.444,-1.000355 1,-1.000355 0.556,0 1,0.463061 1,1.000355 0,0.321795 -0.251,0.672742 -0.4995,0.849903 z"
     id="path2"
     style="fill:#ffffff;stroke-width:0.999998" />
</svg>
