<?xml version="1.0" encoding="UTF-8" standalone="no"?>
<svg
   xmlns:dc="http://purl.org/dc/elements/1.1/"
   xmlns:cc="http://creativecommons.org/ns#"
   xmlns:rdf="http://www.w3.org/1999/02/22-rdf-syntax-ns#"
   xmlns:svg="http://www.w3.org/2000/svg"
   xmlns="http://www.w3.org/2000/svg"
   height="48"
   width="48"
   x="0"
   y="0"
   version="1.0"
   viewBox="0 0 48 48"
   id="svg1468">
  <defs
     id="defs14" />
  <g
     transform="matrix(0.36594693,0,0,0.36594693,-10.310838,-9.3561914)"
     id="layer1">
    <path
       style="color:#000000;font-style:normal;font-variant:normal;font-weight:normal;font-stretch:normal;font-size:medium;line-height:normal;font-family:sans-serif;font-variant-ligatures:normal;font-variant-position:normal;font-variant-caps:normal;font-variant-numeric:normal;font-variant-alternates:normal;font-feature-settings:normal;text-indent:0;text-align:start;text-decoration:none;text-decoration-line:none;text-decoration-style:solid;text-decoration-color:#000000;letter-spacing:normal;word-spacing:normal;text-transform:none;writing-mode:lr-tb;direction:ltr;text-orientation:mixed;dominant-baseline:auto;baseline-shift:baseline;text-anchor:start;white-space:normal;shape-padding:0;clip-rule:nonzero;display:inline;overflow:visible;visibility:visible;opacity:1;isolation:auto;mix-blend-mode:normal;color-interpolation:sRGB;color-interpolation-filters:linearRGB;solid-color:#000000;solid-opacity:1;vector-effect:none;fill:#ffffff;fill-opacity:1;fill-rule:nonzero;stroke:none;stroke-width:3.8520999;stroke-linecap:round;stroke-linejoin:round;stroke-miterlimit:4;stroke-dasharray:none;stroke-dashoffset:0;stroke-opacity:1;color-rendering:auto;image-rendering:auto;shape-rendering:auto;text-rendering:auto;enable-background:accumulate"
       d="m 43.205275,59.725031 c -8.197909,0 -8.197909,0 -8.197909,8.197907 v 60.118012 c 0,8.19791 0,8.19791 8.197909,8.19791 h 87.444345 c 8.19792,0 8.19792,0 8.19792,-8.19791 l 4e-5,-60.118012 c 0,-8.197907 0,-8.197907 -8.19792,-8.197907 z m 2.732641,8.197907 h 81.979094 c 2.73264,0 2.73261,0 2.73261,2.73264 v 54.652742 c 0,2.73263 3e-5,2.73263 -2.73261,2.73263 H 45.937916 c -2.732641,0 -2.732641,0 -2.732641,-2.73263 V 70.655578 c 0,-2.73264 0,-2.73264 2.732641,-2.73264 z"
       id="rect2700" />
    <path
       id="rect4544"
       d="m 56.868459,46.061848 h 87.444371 c 8.19791,0 8.19791,0 8.19791,8.197914 v 60.118008 c 0,8.19791 0,8.19791 -2.73264,8.19791 h -2.73263 c -2.73264,0 -2.73264,0 -2.73264,-8.19791 V 56.992394 c 0,-2.732636 -0.0107,-2.732636 -2.73264,-2.732632 l -84.711731,-4e-6 c -8.19791,0 -8.19791,0 -8.197908,-2.732637 v -2.732637 c -2e-6,-2.732636 -2e-6,-2.732636 8.197908,-2.732636 z"
       style="opacity:1;fill:#ffffff;fill-opacity:1;stroke:none;stroke-width:1.36330605;stroke-linecap:butt;stroke-linejoin:round;stroke-miterlimit:4;stroke-dasharray:none;stroke-dashoffset:0;stroke-opacity:0.72429905;paint-order:normal" />
  </g>
  <metadata
     id="metadata11">
    <rdf:RDF>
      <cc:Work>
        <dc:format>image/svg+xml</dc:format>
        <dc:type
           rdf:resource="http://purl.org/dc/dcmitype/StillImage" />
        <cc:license
           rdf:resource="http://creativecommons.org/publicdomain/zero/1.0/" />
        <dc:title></dc:title>
      </cc:Work>
      <cc:License
         rdf:about="http://creativecommons.org/publicdomain/zero/1.0/">
        <cc:permits
           rdf:resource="http://creativecommons.org/ns#Reproduction" />
        <cc:permits
           rdf:resource="http://creativecommons.org/ns#Distribution" />
        <cc:permits
           rdf:resource="http://creativecommons.org/ns#DerivativeWorks" />
      </cc:License>
    </rdf:RDF>
  </metadata>
</svg>
